# xmcd
#
# Track frame offsets: 
#        150
#        19053
#        38976
#        56540
#        78671
#        104498
#        130040
#        148328
#        172967
#        193869
#        210066
#        229019
#
# Disc length: 3314 seconds
#
# Revision: 0
# Processed by: cddbd v1.5.2PL0 Copyright (c) Steve Scherf et al.
# Submitted via: ExactAudioCopyFreeDBPlugin 1.0
#
DISCID=a10cf00c
DTITLE=曼丽 - 女人三十BSCD
DYEAR=2014
DGENRE=Chanson
TTITLE0=缠绵游戏
TTITLE1=偿还
TTITLE2=回旋木马的终端
TTITLE3=哪有一天不想你
TTITLE4=风继续吹
TTITLE5=情深缘浅
TTITLE6=零时十分
TTITLE7=横滨别恋
TTITLE8=是雨是泪
TTITLE9=禁色
TTITLE10=爱下去
TTITLE11=破晓时分
EXTD=
EXTT0=
EXTT1=
EXTT2=
EXTT3=
EXTT4=
EXTT5=
EXTT6=
EXTT7=
EXTT8=
EXTT9=
EXTT10=
EXTT11=
PLAYORDER=
